{"title":"Looper (2012) PROPER DVDRip XviD AC3 - BTRG","uid":7826786,"size":735881272,"categoryP":"video","categoryS":"movies","magnet":"?xt=urn:btih:6d6d1ed6b9b62799068d2c0d9cdd621bd82064b3&amp;dn=Looper+%282012%29+PROPER+DVDRip+XviD+AC3+-+BTRG&amp;tr=udp%3A%2F%2Ftracker.openbittorrent.com%3A80&amp;tr=udp%3A%2F%2Fopen.demonii.com%3A1337&amp;tr=udp%3A%2F%2Ftracker.coppersurfer.tk%3A6969&amp;tr=udp%3A%2F%2Fexodus.desync.com%3A6969","seeders":0,"leechers":1,"uploader":"tykoon123","files":-1,"time":1352947242,"description":"Poster: &lt;a href=&quot;\nhttp://imgr.us/images/z6ounkf10nqo7d1a3luw.jpg&quot; rel=&quot;nofollow&quot; target=&quot;_NEW&quot;&gt;\nhttp://imgr.us/images/z6ounkf10nqo7d1a3luw.jpg&lt;/a&gt;\n\nInfo:\nFormat : AVI\nFormat/Info : Audio Video Interleave\nFile size : 702 MiB\nDuration : 1h 53mn\nOverall bit rate : 862 Kbps\nWriting application : VirtualDubMod 1.5.10.3 | www.virtualdub-fr.org || (build 2550/release)\nWriting library : VirtualDubMod build 2550/release\n\nVideo\nID : 0\nFormat : MPEG-4 Visual\nFormat profile : Advanced Simple@L5\nFormat settings, BVOP : 4\nFormat settings, QPel : No\nFormat settings, GMC : No warppoints\nFormat settings, Matrix : Custom\nCodec ID : XVID\nCodec ID/Hint : XviD\nDuration : 1h 53mn\nBit rate : 725 Kbps\nWidth : 672 pixels\nHeight : 288 pixels\nDisplay aspect ratio : 2.35:1\nFrame rate : 25.000 fps\nColor space : YUV\nChroma subsampling : 4:2:0\nBit depth : 8 bits\nScan type : Progressive\nCompression mode : Lossy\nBits/(Pixel*Frame) : 0.150\nStream size : 590 MiB (84%)\nWriting library : XviD 1.2.1 (UTC 2008-12-04)\n\nAudio\nID : 1\nFormat : AC-3\nFormat/Info : Audio Coding 3\nMode extension : CM (complete main)\nFormat settings, Endianness : Big\nCodec ID : 2000\nDuration : 1h 53mn\nBit rate mode : Constant\nBit rate : 128 Kbps\nChannel(s) : 6 channels\nChannel positions : Front: L C R, Side: L R, LFE\nSampling rate : 48.0 KHz\nBit depth : 16 bits\nCompression mode : Lossy\nStream size : 104 MiB (15%)\nAlignment : Split accross interleaves\nInterleave, duration : 40 ms (1.00 video frame)\nInterleave, preload duration : 500 ms\n\n\nScreens: &lt;a href=&quot;\nhttp://imgr.us/images/uavs8nsp3x8zjhg22553.png&quot; rel=&quot;nofollow&quot; target=&quot;_NEW&quot;&gt;\nhttp://imgr.us/images/uavs8nsp3x8zjhg22553.png&lt;/a&gt; &lt;a href=&quot;\nhttp://imgr.us/images/kw89f6w6p59mrnqbl7kj.png&quot; rel=&quot;nofollow&quot; target=&quot;_NEW&quot;&gt;\nhttp://imgr.us/images/kw89f6w6p59mrnqbl7kj.png&lt;/a&gt; &lt;a href=&quot;\nhttp://imgr.us/images/o6gaujig9d6yg4ree2v.png&quot; rel=&quot;nofollow&quot; target=&quot;_NEW&quot;&gt;\nhttp://imgr.us/images/o6gaujig9d6yg4ree2v.png&lt;/a&gt; &lt;a href=&quot;\nhttp://imgr.us/images/uqbhcqtqpfyey6jrvxwr.png&quot; rel=&quot;nofollow&quot; target=&quot;_NEW&quot;&gt;\nhttp://imgr.us/images/uqbhcqtqpfyey6jrvxwr.png&lt;/a&gt; &lt;a href=&quot;\nhttp://imgr.us/images/72jvm60eosw797wiwbf.png&quot; rel=&quot;nofollow&quot; target=&quot;_NEW&quot;&gt;\nhttp://imgr.us/images/72jvm60eosw797wiwbf.png&lt;/a&gt;\n","torrent":{"xt":"urn:btih:6d6d1ed6b9b62799068d2c0d9cdd621bd82064b3","amp;dn":"Looper+%282012%29+PROPER+DVDRip+XviD+AC3+-+BTRG","amp;tr":["udp%3A%2F%2Ftracker.openbittorrent.com%3A80","udp%3A%2F%2Fopen.demonii.com%3A1337","udp%3A%2F%2Ftracker.coppersurfer.tk%3A6969","udp%3A%2F%2Fexodus.desync.com%3A6969"],"infoHash":"6d6d1ed6b9b62799068d2c0d9cdd621bd82064b3","infoHashBuffer":{"type":"Buffer","data":[109,109,30,214,185,182,39,153,6,141,44,13,156,221,98,27,216,32,100,179]},"announce":[],"urlList":[]}}